<svg xmlns="http://www.w3.org/2000/svg" xmlns:xlink="http://www.w3.org/1999/xlink" version="1.1" width="940" height="788" viewBox="0 0 940 788" xml:space="preserve">
<desc>Created with Fabric.js 3.5.0</desc>
<defs>
</defs>
<rect x="0" y="0" width="100%" height="100%" fill="rgba(255,255,255,0)"/>
<g transform="matrix(1 0 0 1 407.7235 394)" style="" id="577604">
		
<path xml:space="preserve" font-family="Roboto" font-size="180" font-weight="bold" style="stroke: none; stroke-width: 0; stroke-dasharray: none; stroke-linecap: butt; stroke-dashoffset: 0; stroke-linejoin: miter; stroke-miterlimit: 4; is-custom-font: none; font-file-url: none; fill: rgb(77,143,106); fill-rule: nonzero; opacity: 0.5; white-space: pre;" d="M37.79-19.57L37.79 1.09L-12.83 1.09L-12.83 35.36L46.58 35.36L46.58 56.55L-39.20 56.55L-39.20-71.42L46.41-71.42L46.41-50.07L-12.83-50.07L-12.83-19.57L37.79-19.57Z"/></g>
<g transform="matrix(1 0 0 1 458.6504 394)" style="" id="133095">
		
<path xml:space="preserve" font-family="Roboto" font-size="180" font-weight="bold" style="stroke: none; stroke-width: 0; stroke-dasharray: none; stroke-linecap: butt; stroke-dashoffset: 0; stroke-linejoin: miter; stroke-miterlimit: 4; is-custom-font: none; font-file-url: none; fill: rgb(33,115,69); fill-rule: nonzero; opacity: 1; white-space: pre;" d="M52.08-71.42L52.08-50.07L12.88-50.07L12.88 56.55L-13.49 56.55L-13.49-50.07L-52.16-50.07L-52.16-71.42L52.08-71.42Z"/></g>
<g transform="matrix(1 0 0 1 532.2764 394)" style="" id="891778">
		
<path xml:space="preserve" font-family="Roboto" font-size="180" font-weight="bold" style="stroke: none; stroke-width: 0; stroke-dasharray: none; stroke-linecap: butt; stroke-dashoffset: 0; stroke-linejoin: miter; stroke-miterlimit: 4; is-custom-font: none; font-file-url: none; fill: rgb(23,80,48); fill-rule: nonzero; opacity: 1; white-space: pre;" d="M52.08-71.42L52.08-50.07L12.88-50.07L12.88 56.55L-13.49 56.55L-13.49-50.07L-52.16-50.07L-52.16-71.42L52.08-71.42Z"/></g>
</svg>